REM DIRINDEX 1\2,1\3,1\4,1\5,1\6
REM DIRNAME folder01,folder02,folder03,folder04,folder05,folder06
TITLE ""
FILE "DISC1Track21.mp3" MP3
  TRACK 01 AUDIO
    TITLE "0:"
    INDEX 01 00:00:00
  TRACK 02 AUDIO
    TITLE "2:cjc129_0570"
    INDEX 01 00:03:14
  TRACK 03 AUDIO
    TITLE "0:"
    INDEX 01 00:07:45
  TRACK 04 AUDIO
    TITLE "3:cjc129_0571"
    INDEX 01 00:08:58
  TRACK 05 AUDIO
    TITLE "0:"
    INDEX 01 00:10:29
  TRACK 06 AUDIO
    TITLE "5:cjc129_0572"
    INDEX 01 00:10:63
  TRACK 07 AUDIO
    TITLE "0:"
    INDEX 01 00:13:08
  TRACK 08 AUDIO
    TITLE "4:cjc129_0573"
    INDEX 01 00:14:00
  TRACK 09 AUDIO
    TITLE "0:"
    INDEX 01 00:15:48
  TRACK 10 AUDIO
    TITLE "6:cjc129_0574"
    INDEX 01 00:16:04
  TRACK 11 AUDIO
    TITLE "0:"
    INDEX 01 00:19:30
  TRACK 12 AUDIO
    TITLE "3:cjc129_0575"
    INDEX 01 00:21:06
  TRACK 13 AUDIO
    TITLE "0:"
    INDEX 01 00:22:32
  TRACK 14 AUDIO
    TITLE "5:cjc129_0576"
    INDEX 01 00:22:66
  TRACK 15 AUDIO
    TITLE "0:"
    INDEX 01 00:26:69
  TRACK 16 AUDIO
    TITLE "4:cjc129_0577"
    INDEX 01 00:27:57
  TRACK 17 AUDIO
    TITLE "0:"
    INDEX 01 00:29:09
  TRACK 18 AUDIO
    TITLE "6:cjc129_0578"
    INDEX 01 00:29:42
  TRACK 19 AUDIO
    TITLE "0:"
    INDEX 01 00:34:24
  TRACK 20 AUDIO
    TITLE "3:cjc129_0579"
    INDEX 01 00:35:72
  TRACK 21 AUDIO
    TITLE "0:"
    INDEX 01 00:37:14
  TRACK 22 AUDIO
    TITLE "5:cjc129_0580"
    INDEX 01 00:37:48
  TRACK 23 AUDIO
    TITLE "0:"
    INDEX 01 00:40:05
  TRACK 24 AUDIO
    TITLE "4:cjc129_0581"
    INDEX 01 00:40:72
  TRACK 25 AUDIO
    TITLE "0:"
    INDEX 01 00:42:14
  TRACK 26 AUDIO
    TITLE "6:cjc129_0582"
    INDEX 01 00:42:45
  TRACK 27 AUDIO
    TITLE "0:"
    INDEX 01 00:46:62
  TRACK 28 AUDIO
    TITLE "3:cjc129_0583"
    INDEX 01 00:48:34
  TRACK 29 AUDIO
    TITLE "0:"
    INDEX 01 00:52:02
  TRACK 30 AUDIO
    TITLE "5:cjc129_0584"
    INDEX 01 00:52:34
  TRACK 31 AUDIO
    TITLE "0:"
    INDEX 01 00:57:35
  TRACK 32 AUDIO
    TITLE "4:cjc129_0585"
    INDEX 01 00:58:24
  TRACK 33 AUDIO
    TITLE "0:"
    INDEX 01 01:01:66
  TRACK 34 AUDIO
    TITLE "6:cjc129_0586"
    INDEX 01 01:02:22
  TRACK 35 AUDIO
    TITLE "0:"
    INDEX 01 01:06:06
  TRACK 36 AUDIO
    TITLE "3:cjc129_0587"
    INDEX 01 01:07:55
  TRACK 37 AUDIO
    TITLE "0:"
    INDEX 01 01:08:72
  TRACK 38 AUDIO
    TITLE "5:cjc129_0588"
    INDEX 01 01:09:28
  TRACK 39 AUDIO
    TITLE "0:"
    INDEX 01 01:13:42
  TRACK 40 AUDIO
    TITLE "4:cjc129_0589"
    INDEX 01 01:14:31
  TRACK 41 AUDIO
    TITLE "0:"
    INDEX 01 01:15:48
  TRACK 42 AUDIO
    TITLE "6:cjc129_0590"
    INDEX 01 01:16:05
  TRACK 43 AUDIO
    TITLE "0:"
    INDEX 01 01:19:44
  TRACK 44 AUDIO
    TITLE "3:cjc129_0591"
    INDEX 01 01:21:25
  TRACK 45 AUDIO
    TITLE "0:"
    INDEX 01 01:22:46
  TRACK 46 AUDIO
    TITLE "5:cjc129_0592"
    INDEX 01 01:23:03
  TRACK 47 AUDIO
    TITLE "0:"
    INDEX 01 01:25:74
  TRACK 48 AUDIO
    TITLE "4:cjc129_0593"
    INDEX 01 01:26:70
  TRACK 49 AUDIO
    TITLE "0:"
    INDEX 01 01:28:14
  TRACK 50 AUDIO
    TITLE "6:cjc129_0594"
    INDEX 01 01:28:47
  TRACK 51 AUDIO
    TITLE "0:"
    INDEX 01 01:31:63
  TRACK 52 AUDIO
    TITLE "3:cjc129_0595"
    INDEX 01 01:33:38
  TRACK 53 AUDIO
    TITLE "0:"
    INDEX 01 01:35:12
  TRACK 54 AUDIO
    TITLE "5:cjc129_0596"
    INDEX 01 01:35:43
  TRACK 55 AUDIO
    TITLE "0:"
    INDEX 01 01:37:66
  TRACK 56 AUDIO
    TITLE "4:cjc129_0597"
    INDEX 01 01:38:53
  TRACK 57 AUDIO
    TITLE "0:"
    INDEX 01 01:40:27
  TRACK 58 AUDIO
    TITLE "6:cjc129_0598"
    INDEX 01 01:40:60
  TRACK 59 AUDIO
    TITLE "0:"
    INDEX 01 01:45:69
